<svg width="40" height="40" viewBox="0 0 40 40" fill="none" xmlns="http://www.w3.org/2000/svg">
<path d="M31.4662 8.67732L29.1873 5.84686C28.9204 5.51369 28.5814 5.2453 28.1959 5.06183C27.8105 4.87836 27.3884 4.78456 26.9615 4.78748L10.6537 4.86561C9.90329 4.87055 9.1852 5.17175 8.65581 5.70364C8.12641 6.23552 7.82857 6.95501 7.82715 7.70545V32.4523C7.82798 33.2054 8.12755 33.9273 8.66011 34.4598C9.19267 34.9922 9.91472 35.2915 10.6678 35.2922H29.2537C30.0068 35.2915 30.7288 34.9922 31.2614 34.4598C31.7939 33.9273 32.0935 33.2054 32.0943 32.4523V10.4586C32.0933 9.81072 31.8718 9.18251 31.4662 8.67732ZM30.3225 32.4523C30.3221 32.7356 30.2093 33.0072 30.009 33.2076C29.8086 33.4079 29.537 33.5207 29.2537 33.5211H10.6678C10.3845 33.5207 10.1128 33.4079 9.91251 33.2076C9.71217 33.0072 9.59944 32.7356 9.59902 32.4523V7.70545C9.60086 7.42387 9.71343 7.15433 9.91239 6.95507C10.1114 6.75582 10.3807 6.64286 10.6623 6.64061L26.9701 6.56248H26.9756C27.1354 6.56212 27.2932 6.59784 27.4372 6.66696C27.5813 6.73609 27.7079 6.83684 27.8076 6.9617L30.0865 9.79217C30.2385 9.98248 30.3212 10.2189 30.3209 10.4625L30.3225 32.4523Z" fill="#262626"/>
<path d="M26.2066 13.0984H13.4074C13.2889 13.0949 13.1708 13.1152 13.0603 13.1581C12.9498 13.201 12.849 13.2657 12.764 13.3483C12.6789 13.4309 12.6113 13.5297 12.5651 13.6389C12.5189 13.7481 12.4951 13.8654 12.4951 13.984C12.4951 14.1025 12.5189 14.2199 12.5651 14.3291C12.6113 14.4383 12.6789 14.5371 12.764 14.6196C12.849 14.7022 12.9498 14.7669 13.0603 14.8098C13.1708 14.8527 13.2889 14.873 13.4074 14.8695H26.2066C26.3251 14.873 26.4431 14.8527 26.5536 14.8098C26.6641 14.7669 26.7649 14.7022 26.85 14.6196C26.935 14.5371 27.0027 14.4383 27.0488 14.3291C27.095 14.2199 27.1188 14.1025 27.1188 13.984C27.1188 13.8654 27.095 13.7481 27.0488 13.6389C27.0027 13.5297 26.935 13.4309 26.85 13.3483C26.7649 13.2657 26.6641 13.201 26.5536 13.1581C26.4431 13.1152 26.3251 13.0949 26.2066 13.0984Z" fill="#262626"/>
<path d="M26.2066 19.1516H13.4074C13.1725 19.1516 12.9471 19.2449 12.781 19.411C12.6148 19.5772 12.5215 19.8025 12.5215 20.0375C12.5215 20.2725 12.6148 20.4978 12.781 20.6639C12.9471 20.8301 13.1725 20.9234 13.4074 20.9234H26.2066C26.4416 20.9234 26.6669 20.8301 26.8331 20.6639C26.9992 20.4978 27.0926 20.2725 27.0926 20.0375C27.0926 19.8025 26.9992 19.5772 26.8331 19.411C26.6669 19.2449 26.4416 19.1516 26.2066 19.1516Z" fill="#262626"/>
<path d="M26.2066 25.2054H13.4074C13.1725 25.2054 12.9471 25.2988 12.781 25.4649C12.6148 25.6311 12.5215 25.8564 12.5215 26.0914C12.5215 26.3263 12.6148 26.5517 12.781 26.7178C12.9471 26.884 13.1725 26.9773 13.4074 26.9773H26.2066C26.4416 26.9773 26.6669 26.884 26.8331 26.7178C26.9992 26.5517 27.0926 26.3263 27.0926 26.0914C27.0926 25.8564 26.9992 25.6311 26.8331 25.4649C26.6669 25.2988 26.4416 25.2054 26.2066 25.2054Z" fill="#262626"/>
</svg>
