<svg width="32" height="32" viewBox="0 0 32 32" fill="none" xmlns="http://www.w3.org/2000/svg">
<g clip-path="url(#clip0_29_4)">
<path d="M31.12 9.52003C30.48 8.80003 29.6 8.32003 28.64 8.32003H16.32C15.92 8.32003 15.52 8.64003 15.52 9.12003C15.52 9.60003 15.92 9.92003 16.32 9.92003H28.64C29.12 9.92003 29.6 10.16 29.92 10.48C30.24 10.88 30.4 11.36 30.24 11.84L29.52 15.84H20.72C20.32 15.84 19.92 16.16 19.92 16.64C19.92 17.12 20.32 17.44 20.72 17.44H29.28L28.56 21.28C28.48 21.84 27.92 22.24 27.36 22.24H12C11.44 22.24 10.96 21.84 10.8 21.28L7.68001 3.92003C7.60001 3.52003 7.28001 3.28003 6.88001 3.28003H0.720013C0.320013 3.28003 -0.0799866 3.60003 -0.0799866 4.08003C-0.0799866 4.56003 0.320013 4.88003 0.720013 4.88003H6.24001L9.28001 21.68C9.44001 22.8 10.24 23.6 11.28 23.92C10.88 24.48 10.56 25.2 10.56 26C10.56 28 12.16 29.6 14.16 29.6C16.16 29.6 17.76 28 17.76 26C17.76 25.28 17.52 24.56 17.12 24H22C21.6 24.56 21.36 25.28 21.36 26C21.36 28 22.96 29.6 24.96 29.6C26.96 29.6 28.56 28 28.56 26C28.56 25.2 28.32 24.48 27.92 23.92C28.96 23.68 29.84 22.8 30.08 21.68L31.84 12.24C32 11.28 31.76 10.32 31.12 9.52003ZM16.16 25.92C16.16 27.04 15.28 27.92 14.16 27.92C13.04 27.92 12.16 27.04 12.16 25.92C12.16 24.8 13.04 23.92 14.16 23.92C15.28 23.92 16.16 24.8 16.16 25.92ZM25.04 27.92C23.92 27.92 23.04 27.04 23.04 25.92C23.04 24.8 23.92 23.92 25.04 23.92C26.16 23.92 27.04 24.8 27.04 25.92C27.04 27.04 26.16 27.92 25.04 27.92Z" fill="black"/>
</g>
<defs>
<clipPath id="clip0_29_4">
<rect width="32" height="32" fill="white"/>
</clipPath>
</defs>
</svg>
