<svg width="22" height="22" viewBox="0 0 22 22" fill="none" xmlns="http://www.w3.org/2000/svg">
<path fill-rule="evenodd" clip-rule="evenodd" d="M10.0082 8.02483H11.9916C13.0871 8.02483 13.9751 8.91286 13.9751 10.0083V11.9918C13.9751 13.0872 13.0871 13.9752 11.9916 13.9752H10.0082C8.91273 13.9752 8.0247 13.0872 8.0247 11.9918V10.0083C8.0247 8.91286 8.91273 8.02483 10.0082 8.02483ZM10.0082 0.0909424H11.9916C13.0871 0.0909424 13.9751 0.978972 13.9751 2.07441V4.05788C13.9751 5.15333 13.0871 6.04136 11.9916 6.04136H10.0082C8.91273 6.04136 8.0247 5.15333 8.0247 4.05788V2.07441C8.0247 0.978972 8.91273 0.0909424 10.0082 0.0909424ZM17.9421 8.02483H19.9255C21.021 8.02483 21.909 8.91286 21.909 10.0083V11.9918C21.909 13.0872 21.021 13.9752 19.9255 13.9752H17.9421C16.8466 13.9752 15.9586 13.0872 15.9586 11.9918V10.0083C15.9586 8.91286 16.8466 8.02483 17.9421 8.02483ZM17.9421 0.0909424H19.9255C21.021 0.0909424 21.909 0.978972 21.909 2.07441V4.05788C21.909 5.15333 21.021 6.04136 19.9255 6.04136H17.9421C16.8466 6.04136 15.9586 5.15333 15.9586 4.05788V2.07441C15.9586 0.978972 16.8466 0.0909424 17.9421 0.0909424ZM17.9421 15.9587H19.9255C21.021 15.9587 21.909 16.8467 21.909 17.9422V19.9257C21.909 21.0211 21.021 21.9091 19.9255 21.9091H17.9421C16.8466 21.9091 15.9586 21.0211 15.9586 19.9257V17.9422C15.9586 16.8467 16.8466 15.9587 17.9421 15.9587ZM10.0082 15.9587H11.9916C13.0871 15.9587 13.9751 16.8467 13.9751 17.9422V19.9257C13.9751 21.0211 13.0871 21.9091 11.9916 21.9091H10.0082C8.91273 21.9091 8.0247 21.0211 8.0247 19.9257V17.9422C8.0247 16.8467 8.91273 15.9587 10.0082 15.9587ZM2.07429 8.02483H4.05776C5.1532 8.02483 6.04123 8.91286 6.04123 10.0083V11.9918C6.04123 13.0872 5.1532 13.9752 4.05776 13.9752H2.07429C0.97885 13.9752 0.0908203 13.0872 0.0908203 11.9918V10.0083C0.0908203 8.91286 0.97885 8.02483 2.07429 8.02483ZM2.07429 0.0909424H4.05776C5.1532 0.0909424 6.04123 0.978972 6.04123 2.07441V4.05788C6.04123 5.15333 5.1532 6.04136 4.05776 6.04136H2.07429C0.97885 6.04136 0.0908203 5.15333 0.0908203 4.05788V2.07441C0.0908203 0.978972 0.97885 0.0909424 2.07429 0.0909424ZM2.07429 15.9587H4.05776C5.1532 15.9587 6.04123 16.8467 6.04123 17.9422V19.9257C6.04123 21.0211 5.1532 21.9091 4.05776 21.9091H2.07429C0.97885 21.9091 0.0908203 21.0211 0.0908203 19.9257V17.9422C0.0908203 16.8467 0.97885 15.9587 2.07429 15.9587Z" fill="black"/>
</svg>
